<?xml version="1.0" encoding="UTF-8" standalone="no"?>
<!-- Created with Inkscape (http://www.inkscape.org/) -->

<svg
   xmlns:dc="http://purl.org/dc/elements/1.1/"
   xmlns:cc="http://creativecommons.org/ns#"
   xmlns:rdf="http://www.w3.org/1999/02/22-rdf-syntax-ns#"
   xmlns:svg="http://www.w3.org/2000/svg"
   xmlns="http://www.w3.org/2000/svg"
   xmlns:sodipodi="http://sodipodi.sourceforge.net/DTD/sodipodi-0.dtd"
   xmlns:inkscape="http://www.inkscape.org/namespaces/inkscape"
   width="64"
   height="64"
   viewBox="0 0 16.933333 16.933334"
   version="1.1"
   id="svg1998"
   inkscape:version="0.92.3 (2405546, 2018-03-11)"
   sodipodi:docname="avatar.svg">
  <defs
     id="defs1992" />
  <sodipodi:namedview
     id="base"
     pagecolor="#ffffff"
     bordercolor="#666666"
     borderopacity="1.0"
     inkscape:pageopacity="0.0"
     inkscape:pageshadow="2"
     inkscape:zoom="7.919596"
     inkscape:cx="20.744927"
     inkscape:cy="11.434274"
     inkscape:document-units="mm"
     inkscape:current-layer="g4520"
     showgrid="false"
     units="px"
     inkscape:window-width="1366"
     inkscape:window-height="729"
     inkscape:window-x="0"
     inkscape:window-y="0"
     inkscape:window-maximized="1" />
  <metadata
     id="metadata1995">
    <rdf:RDF>
      <cc:Work
         rdf:about="">
        <dc:format>image/svg+xml</dc:format>
        <dc:type
           rdf:resource="http://purl.org/dc/dcmitype/StillImage" />
        <dc:title />
      </cc:Work>
    </rdf:RDF>
  </metadata>
  <g
     inkscape:label="Layer 1"
     inkscape:groupmode="layer"
     id="layer1"
     transform="translate(0,-280.06665)">
    <g
       transform="matrix(0.80000002,0,0,0.79999483,-2959.5255,1297.67)"
       style="display:inline;stroke-width:1.25000393"
       id="g4520"
       inkscape:export-xdpi="96"
       inkscape:export-ydpi="96">
      <path
         style="opacity:1;fill:#72cbcc;fill-opacity:1;stroke:none;stroke-width:3;stroke-linecap:round;stroke-linejoin:round;stroke-miterlimit:4;stroke-dasharray:none;stroke-opacity:1;paint-order:fill markers stroke"
         d="M 32 0 A 32 31.999792 0 0 0 0 32 A 32 31.999792 0 0 0 4.6816406 48.609375 L 4.6816406 48.591797 L 59.316406 48.591797 A 32 31.999792 0 0 0 64 32 A 32 31.999792 0 0 0 32 0 z "
         id="path4504"
         transform="matrix(0.33072916,0,0,0.3307313,3699.4068,-1272.0124)" />
      <path
         id="circle4510"
         d="m 14022.01,-4802.4355 a 20.859373,20.859373 0 0 0 -20.86,20.8593 20.859373,20.859373 0 0 0 9.133,17.25 39.999998,39.999998 0 0 0 -22.42,17.4824 39.999998,39.999998 0 0 0 34.147,19.2383 39.999998,39.999998 0 0 0 34.146,-19.2617 39.999998,39.999998 0 0 0 -22.474,-17.4433 20.859373,20.859373 0 0 0 9.187,-17.2657 20.859373,20.859373 0 0 0 -20.859,-20.8593 z"
         style="opacity:1;fill:#f4f4f4;fill-opacity:1;stroke:none;stroke-width:3.75001216;stroke-linecap:round;stroke-linejoin:round;stroke-miterlimit:4;stroke-dasharray:none;stroke-opacity:1;paint-order:fill markers stroke"
         inkscape:connector-curvature="0"
         transform="scale(0.26458333)" />
    </g>
  </g>
</svg>
