<?xml version="1.0" encoding="UTF-8" standalone="no"?>
<!-- Created with Inkscape (http://www.inkscape.org/) -->

<svg
   xmlns:dc="http://purl.org/dc/elements/1.1/"
   xmlns:cc="http://creativecommons.org/ns#"
   xmlns:rdf="http://www.w3.org/1999/02/22-rdf-syntax-ns#"
   xmlns:svg="http://www.w3.org/2000/svg"
   xmlns="http://www.w3.org/2000/svg"
   xmlns:sodipodi="http://sodipodi.sourceforge.net/DTD/sodipodi-0.dtd"
   xmlns:inkscape="http://www.inkscape.org/namespaces/inkscape"
   width="34.396mm"
   height="12.999mm"
   viewBox="0 0 34.396001 12.999"
   version="1.1"
   id="svg1600"
   inkscape:version="0.92.3 (2405546, 2018-03-11)"
   sodipodi:docname="logo-LBG.svg">
  <defs
     id="defs1594" />
  <sodipodi:namedview
     id="base"
     pagecolor="#ffffff"
     bordercolor="#666666"
     borderopacity="1.0"
     inkscape:pageopacity="0.0"
     inkscape:pageshadow="2"
     inkscape:zoom="2.8"
     inkscape:cx="34.797979"
     inkscape:cy="20.032287"
     inkscape:document-units="mm"
     inkscape:current-layer="layer1"
     showgrid="false"
     inkscape:window-width="1366"
     inkscape:window-height="729"
     inkscape:window-x="0"
     inkscape:window-y="0"
     inkscape:window-maximized="1" />
  <metadata
     id="metadata1597">
    <rdf:RDF>
      <cc:Work
         rdf:about="">
        <dc:format>image/svg+xml</dc:format>
        <dc:type
           rdf:resource="http://purl.org/dc/dcmitype/StillImage" />
        <dc:title></dc:title>
      </cc:Work>
    </rdf:RDF>
  </metadata>
  <g
     inkscape:label="Layer 1"
     inkscape:groupmode="layer"
     id="layer1"
     transform="translate(0,-284.001)">
    <g
       style="display:inline"
       transform="translate(-40.097736,251.62447)"
       id="g1741">
      <path
         transform="scale(0.26458333)"
         inkscape:connector-curvature="0"
         id="path1721"
         d="m 178.07031,127.36914 c -2.52696,9.3e-4 -4.57524,2.04921 -4.57617,4.57617 v 5.63867 h -0.002 v 0.0117 h -6.72266 c -3.28951,0 -5.83537,1.38241 -7.75976,3.59571 -1.92438,2.21327 -2.50712,4.85756 -2.44922,7.57812 h -0.01 v 12.80078 h 0.002 9.15039 7.78907 9.15625 v -11.99414 -11.99219 -5.63867 c -9.3e-4,-2.52773 -2.0504,-4.57633 -4.57813,-4.57617 z m 93.9043,0 c -2.52773,-1.6e-4 -4.5772,2.04844 -4.57813,4.57617 h -0.002 v 5.63867 7.45704 h -3.73828 c -1.0093,-4.19822 -4.50004,-7.29866 -8.66406,-7.29883 -2.89757,0.003 -5.6156,1.19613 -7.29688,3.77148 -1.67993,-2.57329 -4.39574,-3.76665 -7.29101,-3.77148 -4.16402,1.7e-4 -7.64482,3.10301 -8.66407,7.29883 -0.21477,0.88412 -0.30273,1.75692 -0.30273,2.48632 v 14.04297 h 9.15625 2.52734 9.15625 2.52539 9.15625 3.43555 9.1582 v -16.52929 -7.45704 -5.63867 c -9.3e-4,-2.52773 -2.05039,-4.57632 -4.57812,-4.57617 z m -66.61328,5.6543 v 9.1582 0.74024 h -19.27539 v 9.1582 14.41797 h 22.64062 v -9.15625 -0.74219 h 19.27539 v -23.57617 z"
         style="display:inline;opacity:1;fill:#252525;fill-opacity:1;stroke:#252525;stroke-width:10;stroke-linecap:round;stroke-linejoin:round;stroke-miterlimit:4;stroke-dasharray:none;stroke-opacity:1" />
      <g
         inkscape:export-ydpi="96"
         inkscape:export-xdpi="96"
         transform="matrix(0.84200399,0,0,0.84200399,187.50558,-15.566463)"
         id="g1737"
         style="display:inline;stroke-width:0.4231571"
         inkscape:export-filename="/home/mohamed/Downloads/X/rizzmi/homepage_en.png">
        <path
           style="opacity:1;fill:#f4f4f4;fill-opacity:1;stroke:none;stroke-width:1.11960363;stroke-linecap:square;stroke-linejoin:miter;stroke-miterlimit:4;stroke-dasharray:none;stroke-opacity:1"
           d="m -173.49328,65.235304 h -0.003 v 4.022495 h 2.87631 l 5e-4,-3.730431 c 6e-5,-0.470342 0.2826,-0.929402 0.88555,-0.929402 0.21462,0 0.2995,0.0066 0.48115,0.042 v -2.878628 c -0.48141,-0.0436 -0.50866,-0.0374 -1.03242,-0.0374 -1.03367,0 -1.83339,0.434422 -2.43809,1.129905 -0.6047,0.695483 -0.78819,1.526576 -0.77,2.381461 z"
           id="path1723"
           inkscape:connector-curvature="0"
           sodipodi:nodetypes="ccccssccssc" />
        <path
           style="opacity:1;fill:#f4f4f4;fill-opacity:1;stroke:none;stroke-width:4.23157215;stroke-linecap:square;stroke-linejoin:miter;stroke-miterlimit:4;stroke-dasharray:none;stroke-opacity:1"
           d="m -630.17773,221.14258 a 5.4368506,5.4368506 0 0 0 -5.43555,5.43554 5.4368506,5.4368506 0 0 0 5.43555,5.4375 5.4368506,5.4368506 0 0 0 5.4375,-5.4375 5.4368506,5.4368506 0 0 0 -5.4375,-5.43554 z m -5.4375,12.13086 v 28.48828 h 10.875 v -28.48828 z"
           transform="scale(0.26458333)"
           id="path1725"
           inkscape:connector-curvature="0" />
        <g
           id="g1731"
           transform="translate(-0.52573957,-0.28865783)"
           style="stroke-width:0.4231571">
          <path
             sodipodi:nodetypes="ccccccccccc"
             style="opacity:1;fill:#50a141;fill-opacity:1;stroke:none;stroke-width:1.1196034;stroke-linecap:square;stroke-linejoin:miter;stroke-miterlimit:4;stroke-dasharray:none;stroke-opacity:1"
             d="m -157.63327,60.5762 v 2.877344 l 2.38435,-0.01035 -0.88574,1.687235 -1.49861,2.854089 h 7.1143 v -2.877344 l -2.38383,0.01035 0.88573,-1.687235 1.4981,-2.85409 z"
             id="path1727"
             inkscape:connector-curvature="0" />
          <path
             inkscape:connector-curvature="0"
             id="path1729"
             d="m -163.69027,63.686551 v 2.877344 l 2.38435,-0.01035 -0.88574,1.687235 -1.49861,2.854089 h 7.1143 v -2.877344 l -2.38383,0.01035 0.88573,-1.687235 1.4981,-2.85409 z"
             style="opacity:1;fill:#50a141;fill-opacity:1;stroke:none;stroke-width:1.1196034;stroke-linecap:square;stroke-linejoin:miter;stroke-miterlimit:4;stroke-dasharray:none;stroke-opacity:1"
             sodipodi:nodetypes="ccccccccccc" />
        </g>
        <path
           style="opacity:1;fill:#f4f4f4;fill-opacity:1;stroke:none;stroke-width:1.1196034;stroke-linecap:square;stroke-linejoin:miter;stroke-miterlimit:4;stroke-dasharray:none;stroke-opacity:1"
           d="m -137.22729,58.51064 a 1.4385,1.4385 0 0 0 -1.43815,1.438153 1.4385,1.4385 0 0 0 1.43815,1.438672 1.4385,1.4385 0 0 0 1.43867,-1.438672 1.4385,1.4385 0 0 0 -1.43867,-1.438153 z m -1.43867,3.209624 v 7.537524 h 2.87734 v -7.537524 z"
           id="path1733"
           inkscape:connector-curvature="0" />
        <path
           style="opacity:1;fill:#f4f4f4;fill-opacity:1;stroke:none;stroke-width:1.1196034;stroke-linecap:square;stroke-linejoin:miter;stroke-miterlimit:4;stroke-dasharray:none;stroke-opacity:1"
           d="m -147.1471,61.769871 c -1.5563,6.4e-5 -2.81791,1.376887 -2.81791,3.075263 5.3e-4,0.02635 0.002,0.05298 0.001,0.06615 l -0.001,4.346506 h 2.87734 v -0.520899 -0.818554 -2.878894 c 0,-0.288579 0.17701,-0.520899 0.39688,-0.520899 0.21986,0 0.39687,0.23232 0.39687,0.520899 v 2.732648 0.9648 0.520899 h 2.87734 v -0.520903 -0.962215 -2.735233 c 0,-0.288579 0.17701,-0.520899 0.39688,-0.520899 0.21987,0 0.39687,0.23232 0.39687,0.520899 v 2.877859 0.819589 0.520899 h 2.87735 l -0.001,-4.346506 c -0.001,-0.01318 1.1e-4,-0.03978 0.001,-0.06615 0,-1.698376 -1.26162,-3.075199 -2.81792,-3.075263 -0.91051,7.94e-4 -1.76457,0.376382 -2.29288,1.185639 -0.52789,-0.808609 -1.38104,-1.18412 -2.29082,-1.185639 z"
           id="path1735"
           inkscape:connector-curvature="0"
           sodipodi:nodetypes="cccccccsssccccccssscccccccccc" />
      </g>
    </g>
  </g>
</svg>
