<?xml version="1.0" encoding="UTF-8" standalone="no"?>
<!-- Created with Inkscape (http://www.inkscape.org/) -->

<svg
   xmlns:dc="http://purl.org/dc/elements/1.1/"
   xmlns:cc="http://creativecommons.org/ns#"
   xmlns:rdf="http://www.w3.org/1999/02/22-rdf-syntax-ns#"
   xmlns:svg="http://www.w3.org/2000/svg"
   xmlns="http://www.w3.org/2000/svg"
   xmlns:sodipodi="http://sodipodi.sourceforge.net/DTD/sodipodi-0.dtd"
   xmlns:inkscape="http://www.inkscape.org/namespaces/inkscape"
   width="189mm"
   height="62mm"
   viewBox="0 0 189 62"
   version="1.1"
   id="svg1081"
   inkscape:version="0.92.3 (2405546, 2018-03-11)"
   sodipodi:docname="logo.svg">
  <defs
     id="defs1075" />
  <sodipodi:namedview
     id="base"
     pagecolor="#ffffff"
     bordercolor="#666666"
     borderopacity="1.0"
     inkscape:pageopacity="0.0"
     inkscape:pageshadow="2"
     inkscape:zoom="0.7"
     inkscape:cx="312.92989"
     inkscape:cy="178.1281"
     inkscape:document-units="mm"
     inkscape:current-layer="g991"
     showgrid="false"
     inkscape:window-width="1366"
     inkscape:window-height="729"
     inkscape:window-x="0"
     inkscape:window-y="0"
     inkscape:window-maximized="1" />
  <metadata
     id="metadata1078">
    <rdf:RDF>
      <cc:Work
         rdf:about="">
        <dc:format>image/svg+xml</dc:format>
        <dc:type
           rdf:resource="http://purl.org/dc/dcmitype/StillImage" />
        <dc:title />
      </cc:Work>
    </rdf:RDF>
  </metadata>
  <g
     inkscape:label="Layer 1"
     inkscape:groupmode="layer"
     id="layer1"
     transform="translate(0,-235)">
    <g
       id="g1017"
       transform="matrix(5.0000001,0,0,5.0000001,867.73142,-57.281063)"
       style="stroke-width:0.2">
      <path
         sodipodi:nodetypes="ccccssccssc"
         inkscape:connector-curvature="0"
         id="circle929"
         d="m -173.49328,65.235304 h -0.003 v 4.022495 h 2.87631 l 5e-4,-3.730431 c 6e-5,-0.470342 0.2826,-0.929402 0.88555,-0.929402 0.21462,0 0.2995,0.0066 0.48115,0.042 v -2.878628 c -0.48141,-0.0436 -0.50866,-0.0374 -1.03242,-0.0374 -1.03367,0 -1.83339,0.434422 -2.43809,1.129905 -0.6047,0.695483 -0.78819,1.526576 -0.77,2.381461 z"
         style="opacity:1;fill:#ffffff;fill-opacity:1;stroke:none;stroke-width:0.52916676;stroke-linecap:square;stroke-linejoin:miter;stroke-miterlimit:4;stroke-dasharray:none;stroke-opacity:1" />
      <path
         inkscape:connector-curvature="0"
         id="rect933"
         transform="scale(0.26458333)"
         d="m -630.17773,221.14258 a 5.4368506,5.4368506 0 0 0 -5.43555,5.43554 5.4368506,5.4368506 0 0 0 5.43555,5.4375 5.4368506,5.4368506 0 0 0 5.4375,-5.4375 5.4368506,5.4368506 0 0 0 -5.4375,-5.43554 z m -5.4375,12.13086 v 28.48828 h 10.875 v -28.48828 z"
         style="opacity:1;fill:#ffffff;fill-opacity:1;stroke:none;stroke-width:1.99999976;stroke-linecap:square;stroke-linejoin:miter;stroke-miterlimit:4;stroke-dasharray:none;stroke-opacity:1" />
      <g
         transform="translate(-0.52573957,-0.28865783)"
         id="g991"
         style="stroke-width:0.2">
        <path
           inkscape:connector-curvature="0"
           id="path958"
           d="m -157.63327,60.5762 v 2.877344 l 2.38435,-0.01035 -0.88574,1.687235 -1.49861,2.854089 h 7.1143 v -2.877344 l -2.38383,0.01035 0.88573,-1.687235 1.4981,-2.85409 z"
           style="opacity:1;fill:#50a141;fill-opacity:1;stroke:none;stroke-width:0.52916658;stroke-linecap:square;stroke-linejoin:miter;stroke-miterlimit:4;stroke-dasharray:none;stroke-opacity:1"
           sodipodi:nodetypes="ccccccccccc" />
        <path
           sodipodi:nodetypes="ccccccccccc"
           style="opacity:1;fill:#50a141;fill-opacity:1;stroke:none;stroke-width:0.52916658;stroke-linecap:square;stroke-linejoin:miter;stroke-miterlimit:4;stroke-dasharray:none;stroke-opacity:1"
           d="m -163.69027,63.686551 v 2.877344 l 2.38435,-0.01035 -0.88574,1.687235 -1.49861,2.854089 h 7.1143 v -2.877344 l -2.38383,0.01035 0.88573,-1.687235 1.4981,-2.85409 z"
           id="path1023"
           inkscape:connector-curvature="0" />
      </g>
      <path
         inkscape:connector-curvature="0"
         id="rect960"
         d="m -137.22729,58.51064 a 1.4385,1.4385 0 0 0 -1.43815,1.438153 1.4385,1.4385 0 0 0 1.43815,1.438672 1.4385,1.4385 0 0 0 1.43867,-1.438672 1.4385,1.4385 0 0 0 -1.43867,-1.438153 z m -1.43867,3.209624 v 7.537524 h 2.87734 v -7.537524 z"
         style="opacity:1;fill:#ffffff;fill-opacity:1;stroke:none;stroke-width:0.52916658;stroke-linecap:square;stroke-linejoin:miter;stroke-miterlimit:4;stroke-dasharray:none;stroke-opacity:1" />
      <path
         sodipodi:nodetypes="cccccccsssccccccssscccccccccc"
         inkscape:connector-curvature="0"
         id="rect964"
         d="m -147.1471,61.769871 c -1.5563,6.4e-5 -2.81791,1.376887 -2.81791,3.075263 5.3e-4,0.02635 0.002,0.05298 0.001,0.06615 l -0.001,4.346506 h 2.87734 v -0.520899 -0.818554 -2.878894 c 0,-0.288579 0.17701,-0.520899 0.39688,-0.520899 0.21986,0 0.39687,0.23232 0.39687,0.520899 v 2.732648 0.9648 0.520899 h 2.87734 v -0.520903 -0.962215 -2.735233 c 0,-0.288579 0.17701,-0.520899 0.39688,-0.520899 0.21987,0 0.39687,0.23232 0.39687,0.520899 v 2.877859 0.819589 0.520899 h 2.87735 l -0.001,-4.346506 c -0.001,-0.01318 1.1e-4,-0.03978 0.001,-0.06615 0,-1.698376 -1.26162,-3.075199 -2.81792,-3.075263 -0.91051,7.94e-4 -1.76457,0.376382 -2.29288,1.185639 -0.52789,-0.808609 -1.38104,-1.18412 -2.29082,-1.185639 z"
         style="opacity:1;fill:#ffffff;fill-opacity:1;stroke:none;stroke-width:0.52916658;stroke-linecap:square;stroke-linejoin:miter;stroke-miterlimit:4;stroke-dasharray:none;stroke-opacity:1" />
    </g>
  </g>
</svg>
