<?xml version="1.0" encoding="UTF-8" standalone="no"?>
<svg
   xmlns:dc="http://purl.org/dc/elements/1.1/"
   xmlns:cc="http://creativecommons.org/ns#"
   xmlns:rdf="http://www.w3.org/1999/02/22-rdf-syntax-ns#"
   xmlns:svg="http://www.w3.org/2000/svg"
   xmlns="http://www.w3.org/2000/svg"
   xmlns:sodipodi="http://sodipodi.sourceforge.net/DTD/sodipodi-0.dtd"
   xmlns:inkscape="http://www.inkscape.org/namespaces/inkscape"
   width="24"
   height="24"
   viewBox="0 0 24 24"
   version="1.1"
   id="svg6"
   sodipodi:docname="settings_applications-24px.svg"
   inkscape:version="0.92.3 (2405546, 2018-03-11)">
  <metadata
     id="metadata12">
    <rdf:RDF>
      <cc:Work
         rdf:about="">
        <dc:format>image/svg+xml</dc:format>
        <dc:type
           rdf:resource="http://purl.org/dc/dcmitype/StillImage" />
      </cc:Work>
    </rdf:RDF>
  </metadata>
  <defs
     id="defs10" />
  <sodipodi:namedview
     pagecolor="#ffffff"
     bordercolor="#666666"
     borderopacity="1"
     objecttolerance="10"
     gridtolerance="10"
     guidetolerance="10"
     inkscape:pageopacity="0"
     inkscape:pageshadow="2"
     inkscape:window-width="1366"
     inkscape:window-height="729"
     id="namedview8"
     showgrid="false"
     inkscape:zoom="13.906433"
     inkscape:cx="4.422835"
     inkscape:cy="10.556446"
     inkscape:window-x="0"
     inkscape:window-y="0"
     inkscape:window-maximized="1"
     inkscape:current-layer="svg6" />
  <path
     d="M0 0h24v24H0z"
     fill="none"
     id="path2" />
  <path
     d="m 12,9.0991618 c -1.595461,0 -2.9008382,1.3053772 -2.9008382,2.9008382 0,1.59546 1.3053772,2.900837 2.9008382,2.900837 1.59546,0 2.900837,-1.305377 2.900837,-2.900837 C 14.900837,10.404539 13.59546,9.0991618 12,9.0991618 Z M 19.614699,12 c 0,0.333596 -0.02901,0.667192 -0.07252,0.986284 l 2.146622,1.682487 c 0.188554,0.159546 0.24657,0.435125 0.116032,0.652689 l -2.030586,3.510013 c -0.13054,0.217563 -0.391616,0.304588 -0.623683,0.217563 l -2.523727,-1.015294 c -0.522151,0.406118 -1.102318,0.739714 -1.711495,1.000789 l -0.377109,2.683274 c -0.04352,0.246572 -0.261074,0.435126 -0.507646,0.435126 H 9.9694132 c -0.2465712,0 -0.4641341,-0.188554 -0.5076467,-0.420621 L 9.0846577,19.049036 C 8.4609775,18.78796 7.8953141,18.454364 7.3731633,18.048246 L 4.8494345,19.06354 c -0.2320671,0.08702 -0.4931425,0 -0.6236802,-0.217564 L 2.1951678,15.335963 C 2.0646301,15.1184 2.122647,14.84282 2.3112013,14.683275 L 4.4578214,13.000789 C 4.4143088,12.667192 4.3853003,12.333596 4.3853003,12 c 0,-0.333597 0.029009,-0.667193 0.072521,-0.986285 L 2.3112013,9.3312289 C 2.122647,9.1716828 2.0646301,8.8961032 2.1951678,8.6785404 L 4.2257543,5.1685266 C 4.356292,4.9509637 4.6173674,4.8639386 4.8494345,4.9509637 L 7.3731633,5.966257 C 7.8953141,5.5601397 8.4754816,5.2265433 9.0846577,4.9654679 L 9.4617665,2.2821929 C 9.5052788,2.0356218 9.722842,1.8470673 9.9694132,1.8470673 h 4.0611728 c 0.246571,0 0.464134,0.1885545 0.507646,0.4206214 l 0.377109,2.683275 c 0.623681,0.2610754 1.189344,0.5946717 1.711495,1.000789 l 2.523729,-1.0152931 c 0.232067,-0.087026 0.493142,0 0.62368,0.2175628 l 2.030586,3.5100137 c 0.130538,0.2175628 0.07252,0.4931425 -0.116032,0.6526885 L 19.542177,10.99921 c 0.04352,0.333597 0.07252,0.667193 0.07252,1.00079 z"
     id="path4"
     inkscape:connector-curvature="0"
     sodipodi:nodetypes="ssssssccccccccssccccccccsccccccccssccccccccs"
     style="fill:#7d7c7a;fill-opacity:1;stroke-width:1" />
</svg>
